<svg xmlns="http://www.w3.org/2000/svg" viewBox="0 0 32 32">
  <defs>
    <linearGradient id="em" x1="0" y1="0" x2="0" y2="1">
      <stop offset="0" stop-color="#34d399"/>
      <stop offset="0.55" stop-color="#10b981"/>
      <stop offset="1" stop-color="#059669"/>
    </linearGradient>
    <linearGradient id="gloss" x1="0" y1="0" x2="0" y2="1">
      <stop offset="0" stop-color="#ffffff" stop-opacity="0.45"/>
      <stop offset="0.5" stop-color="#ffffff" stop-opacity="0.08"/>
      <stop offset="1" stop-color="#ffffff" stop-opacity="0"/>
    </linearGradient>
  </defs>
  <!-- glass tile -->
  <rect x="1" y="1" width="30" height="30" rx="8" fill="url(#em)"/>
  <rect x="1" y="1" width="30" height="15" rx="8" fill="url(#gloss)"/>
  <rect x="1.6" y="1.6" width="28.8" height="28.8" rx="7.4" fill="none" stroke="#ffffff" stroke-opacity="0.55" stroke-width="1"/>
  <!-- shield -->
  <path d="M16 5.2 L24.4 8 V15.2 C24.4 20.6 20.8 24.4 16 26.6 C11.2 24.4 7.6 20.6 7.6 15.2 V8 Z"
        fill="#ffffff" fill-opacity="0.96"/>
  <!-- GPU chip inside shield -->
  <rect x="12.3" y="11.2" width="7.4" height="7.4" rx="1.6" fill="#0c8f63"/>
  <rect x="14.0" y="12.9" width="4.0" height="4.0" rx="0.8" fill="#ffffff" fill-opacity="0.92"/>
  <!-- pins -->
  <g fill="#0c8f63">
    <rect x="13.3" y="9.5" width="1.1" height="1.9" rx="0.5"/>
    <rect x="15.45" y="9.5" width="1.1" height="1.9" rx="0.5"/>
    <rect x="17.6" y="9.5" width="1.1" height="1.9" rx="0.5"/>
    <rect x="13.3" y="18.6" width="1.1" height="1.9" rx="0.5"/>
    <rect x="15.45" y="18.6" width="1.1" height="1.9" rx="0.5"/>
    <rect x="17.6" y="18.6" width="1.1" height="1.9" rx="0.5"/>
    <rect x="9.7" y="13.3" width="1.9" height="1.1" rx="0.5"/>
    <rect x="9.7" y="15.45" width="1.9" height="1.1" rx="0.5"/>
    <rect x="20.4" y="13.3" width="1.9" height="1.1" rx="0.5"/>
    <rect x="20.4" y="15.45" width="1.9" height="1.1" rx="0.5"/>
  </g>
</svg>
